<svg width="349" height="152" viewBox="0 0 349 152" xmlns="http://www.w3.org/2000/svg"><title>Group</title><g id="Page-1" fill="none" fill-rule="evenodd"><g id="Group" transform="translate(18 12)"><path d="M58 122c32.033 0 58-25.967 58-58 0-23.056-13.453-42.97-32.937-52.32C75.477 8.04 66.977 6 58 6 25.967 6 0 31.967 0 64s25.967 58 58 58z" id="Oval" stroke="#BE7AA3" stroke-width="36"/><circle id="Oval-Copy" stroke="#BE7AA3" stroke-width="36" cx="255" cy="64" r="58"/><path d="M99 0s29.785 32 58 32 58-32 58-32v64H99V0zm116 128s-29.785-32-58-32-58 32-58 32V64h116v64z" id="Combined-Shape" fill="#BE7AA3"/></g></g></svg>