<?xml version="1.0" encoding="UTF-8" standalone="no"?>
<svg width="349px" height="152px" viewBox="0 0 349 152" version="1.1" xmlns="http://www.w3.org/2000/svg" xmlns:xlink="http://www.w3.org/1999/xlink">
    <!-- Generator: Sketch 39.1 (31720) - http://www.bohemiancoding.com/sketch -->
    <title>Group</title>
    <desc>Created with Sketch.</desc>
    <defs></defs>
    <g id="Page-1" stroke="none" stroke-width="1" fill="none" fill-rule="evenodd">
        <g id="Group" transform="translate(18.000000, 12.000000)">
            <path d="M58,122 C90.0325155,122 116,96.0325155 116,64 C116,40.9441152 102.54724,21.0302907 83.0630022,11.6798074 C75.4769645,8.03926893 66.9766306,6 58,6 C25.9674845,6 0,31.9674845 0,64 C0,96.0325155 25.9674845,122 58,122 Z" id="Oval" stroke="#BE7AA3" stroke-width="36"></path>
            <circle id="Oval-Copy" stroke="#BE7AA3" stroke-width="36" cx="255" cy="64" r="58"></circle>
            <path d="M99,0 C99,0 128.78468,32 157,32 C185.21532,32 215,0 215,0 L215,64 L99,64 L99,0 Z M215,128 C215,128 185.21532,96 157,96 C128.78468,96 99,128 99,128 L99,64 L215,64 L215,128 Z" id="Combined-Shape" fill="#BE7AA3"></path>
        </g>
    </g>
</svg>